<svg xmlns="http://www.w3.org/2000/svg" width="250" height="205" fill="none"><g fill="#000" clip-path="url(#a)"><path d="M18.387 10.457c.018-.054.072-.18.072-.252a.18.18 0 0 0-.18-.18c-.072 0-.108.018-.162.072-.036.018-.036.054-.198.414-1.063 2.522-1.838 3.603-4.72 3.603h-2.63c-.252 0-.288 0-.396-.018-.198-.018-.216-.054-.216-.198 0-.127.036-.235.072-.397l1.243-4.971h1.783c1.405 0 1.513.306 1.513.846 0 .18 0 .343-.126.883a.5.5 0 0 0-.054.198c0 .126.09.18.198.18.162 0 .18-.126.252-.378l1.027-4.179a.18.18 0 0 0-.18-.18c-.162 0-.18.072-.252.324-.36 1.387-.72 1.784-2.324 1.784h-1.711l1.117-4.432c.162-.63.198-.684.936-.684h2.576c2.216 0 2.666.594 2.666 1.963 0 .018 0 .523-.072 1.117-.018.072-.036.18-.036.216 0 .144.09.198.198.198.126 0 .198-.072.234-.396l.378-3.152c0-.054.037-.234.037-.27 0-.198-.163-.198-.487-.198h-8.79c-.342 0-.522 0-.522.324 0 .198.126.198.432.198 1.117 0 1.117.126 1.117.324 0 .09-.018.162-.072.36l-2.432 9.727c-.162.63-.198.81-1.459.81-.342 0-.522 0-.522.325 0 .198.108.198.468.198h9.042c.397 0 .415-.018.54-.306zM25.834 19.013c0-.054 0-.09-.306-.396-1.801-1.82-2.81-4.791-2.81-8.466 0-3.494.846-6.502 2.936-8.628.18-.162.18-.198.18-.252 0-.108-.09-.144-.162-.144-.234 0-1.711 1.297-2.594 3.062-.919 1.82-1.333 3.747-1.333 5.962 0 1.603.252 3.747 1.189 5.674 1.063 2.162 2.54 3.332 2.738 3.332.072 0 .162-.036.162-.144M35.395 7.323 33.7 3.378c.235-.432.775-.504.991-.522.108 0 .306-.018.306-.324 0-.198-.162-.198-.27-.198-.306 0-.666.036-.973.036h-1.044c-1.099 0-1.891-.036-1.91-.036-.144 0-.324 0-.324.342 0 .18.162.18.396.18 1.045 0 1.117.18 1.297.613l2.144 5.007-3.909 4.179c-.648.702-1.423 1.387-2.756 1.459-.216.018-.36.018-.36.342 0 .054.018.18.216.18.252 0 .523-.036.775-.036h.846c.577 0 1.207.036 1.766.036.126 0 .342 0 .342-.324 0-.18-.126-.198-.234-.198-.36-.036-.595-.234-.595-.523 0-.306.216-.522.739-1.062l1.603-1.747c.396-.415 1.35-1.46 1.747-1.856l1.891 4.431c.018.036.09.216.09.235 0 .162-.396.486-.972.522-.108 0-.306.018-.306.342 0 .18.18.18.27.18.306 0 .666-.036.972-.036h1.982c.324 0 .666.036.972.036.127 0 .325 0 .325-.342 0-.18-.18-.18-.343-.18-1.08-.018-1.116-.108-1.423-.775l-2.377-5.584 2.287-2.45c.18-.18.595-.63.757-.81.774-.81 1.495-1.549 2.954-1.639.18-.018.36-.018.36-.324 0-.198-.162-.198-.234-.198-.252 0-.522.036-.774.036h-.83c-.575 0-1.206-.036-1.764-.036-.126 0-.343 0-.343.324 0 .18.127.198.235.198.288.036.594.18.594.522l-.018.036a.9.9 0 0 1-.252.523zM54.082 10.475h4.971c.253 0 .577 0 .577-.324 0-.342-.306-.342-.577-.342h-4.97V4.837c0-.252 0-.576-.325-.576-.342 0-.342.306-.342.576V9.81h-4.972c-.252 0-.576 0-.576.324 0 .342.306.342.576.342h4.972v4.972c0 .252 0 .576.324.576.342 0 .342-.306.342-.576zM75.207 4.333l.414-.414c.793-.81 1.46-1.009 2.09-1.063.198-.018.36-.036.36-.342 0-.18-.18-.18-.216-.18-.216 0-.45.036-.667.036h-.738c-.523 0-1.081-.036-1.585-.036-.126 0-.325 0-.325.342 0 .162.18.18.235.18.54.036.54.306.54.414 0 .199-.144.469-.504.883L70.524 9.07l-2.036-5.475c-.108-.253-.108-.289-.108-.325 0-.378.739-.414.955-.414s.414 0 .414-.324c0-.198-.162-.198-.27-.198-.306 0-.666.036-.973.036h-2c-.323 0-.666-.036-.972-.036-.126 0-.324 0-.324.342 0 .18.162.18.432.18.883 0 1.045.162 1.207.577l2.234 5.998c.018.054.072.252.072.306s-.883 3.602-.937 3.783c-.144.486-.324.576-1.477.594-.306 0-.45 0-.45.342 0 .18.198.18.252.18.324 0 .702-.036 1.045-.036h2.125c.324 0 .703.036 1.027.036.126 0 .342 0 .342-.324 0-.198-.126-.198-.432-.198-1.117 0-1.117-.126-1.117-.324 0-.126.144-.703.234-1.063l.649-2.594c.108-.378.108-.414.27-.594zM83.847 10.151c0-1.369-.18-3.602-1.188-5.692-1.063-2.161-2.54-3.332-2.738-3.332-.072 0-.163.036-.163.144 0 .054 0 .09.307.396 1.801 1.82 2.81 4.792 2.81 8.466 0 3.495-.847 6.503-2.936 8.628-.18.162-.18.198-.18.252 0 .108.09.144.162.144.234 0 1.71-1.297 2.593-3.062.92-1.837 1.333-3.782 1.333-5.944M102.789 8.8c.252 0 .576 0 .576-.324 0-.342-.306-.342-.576-.342h-10.61c-.252 0-.576 0-.576.324 0 .342.306.342.576.342zm0 3.35c.252 0 .576 0 .576-.324 0-.342-.306-.342-.576-.342h-10.61c-.252 0-.576 0-.576.324 0 .343.306.343.576.343zM117.745.198c-.703.18-1.279.72-1.729 1.64-.433.864-.559 1.422-.901 3.98-.432 3.296-.594 4.845-.81 7.944a91 91 0 0 1-.199 2.521c-.234 2.54-.702 3.405-1.819 3.423-.252 0-.738-.145-.954-.27l-.145-.09.199-.109c.558-.306.594-1.008.054-1.333a.733.733 0 0 0-1.009.289c-.144.216-.126.666.018.954.324.63 1.171 1.027 2.053.973 1.315-.09 2.324-1.333 2.756-3.368.108-.559.523-3.53.721-5.332.198-1.657.288-2.684.432-4.936.288-3.872.432-4.755.901-5.421.396-.54 1.152-.667 1.945-.288l.234.108-.198.126c-.432.234-.576.684-.36 1.044.324.523.99.523 1.315 0 .09-.144.108-.234.09-.468-.036-.378-.144-.594-.415-.864-.504-.505-1.441-.721-2.179-.523M132.755.198c-.702.18-1.279.72-1.729 1.64-.432.864-.558 1.422-.9 3.98-.433 3.296-.595 4.845-.811 7.944a93 93 0 0 1-.198 2.521c-.234 2.54-.703 3.405-1.819 3.423-.253 0-.739-.145-.955-.27l-.144-.09.198-.109c.558-.306.594-1.008.054-1.333a.733.733 0 0 0-1.009.289c-.144.216-.126.666.018.954.324.63 1.171 1.027 2.054.973 1.315-.09 2.323-1.333 2.756-3.368.108-.559.522-3.53.72-5.332.198-1.657.288-2.684.432-4.936.289-3.872.433-4.755.901-5.421.396-.54 1.153-.667 1.945-.288l.235.108-.199.126c-.432.234-.576.684-.36 1.044.324.523.991.523 1.315 0 .09-.144.108-.234.09-.468-.036-.378-.144-.594-.414-.864-.505-.505-1.441-.721-2.18-.523M142.224 19.013c0-.054 0-.09-.306-.396-1.802-1.82-2.81-4.791-2.81-8.466 0-3.494.846-6.502 2.936-8.628.18-.162.18-.198.18-.252 0-.108-.09-.144-.162-.144-.234 0-1.711 1.297-2.594 3.062-.919 1.82-1.333 3.747-1.333 5.962 0 1.603.252 3.747 1.189 5.674 1.063 2.162 2.54 3.332 2.738 3.332.072 0 .162-.036.162-.144M151.767 7.287c-.577.108-.793.54-.793.883 0 .432.342.576.594.576.541 0 .919-.468.919-.955 0-.756-.865-1.098-1.621-1.098-1.099 0-1.711 1.08-1.873 1.423-.415-1.351-1.531-1.423-1.856-1.423-1.837 0-2.81 2.36-2.81 2.756 0 .072.072.162.199.162.144 0 .18-.108.216-.18.612-2 1.819-2.378 2.341-2.378.811 0 .973.756.973 1.189 0 .396-.108.81-.324 1.675l-.613 2.468c-.27 1.08-.792 2.071-1.747 2.071-.09 0-.54 0-.918-.234a.93.93 0 0 0 .792-.883c0-.36-.27-.576-.612-.576-.433 0-.901.378-.901.954 0 .757.847 1.1 1.621 1.1.865 0 1.477-.685 1.855-1.424.289 1.063 1.189 1.423 1.856 1.423 1.837 0 2.81-2.36 2.81-2.756 0-.09-.072-.162-.18-.162-.163 0-.181.09-.235.234-.486 1.585-1.531 2.324-2.341 2.324-.631 0-.973-.468-.973-1.207 0-.396.072-.684.36-1.873l.631-2.45c.27-1.08.882-1.873 1.711-1.873.036 0 .54 0 .919.234M164.441 10.475h4.971c.252 0 .577 0 .577-.324 0-.342-.307-.342-.577-.342h-4.971V4.837c0-.252 0-.576-.324-.576-.343 0-.343.306-.343.576V9.81h-4.971c-.252 0-.576 0-.576.324 0 .342.306.342.576.342h4.971v4.972c0 .252 0 .576.325.576.342 0 .342-.306.342-.576zM179.712 16.654c-.487.684-1.189 1.296-2.072 1.296-.216 0-1.081-.036-1.351-.864a.91.91 0 0 0 1.081-.865c0-.414-.342-.558-.613-.558-.288 0-.918.216-.918 1.099 0 .918.774 1.549 1.801 1.549 1.801 0 3.621-1.657 4.125-3.657l1.765-7.025c.018-.09.054-.198.054-.306 0-.27-.216-.45-.486-.45-.162 0-.541.072-.685.612l-1.333 5.296c-.09.324-.09.36-.234.558-.36.505-.954 1.117-1.819 1.117-1.009 0-1.099-.99-1.099-1.477 0-1.027.487-2.414.973-3.71.198-.523.306-.775.306-1.135 0-.757-.54-1.441-1.423-1.441-1.657 0-2.323 2.611-2.323 2.756 0 .072.072.162.198.162.162 0 .18-.072.252-.325.432-1.513 1.117-2.233 1.819-2.233.162 0 .468 0 .468.594 0 .469-.198.991-.468 1.675-.882 2.36-.882 2.955-.882 3.387 0 1.711 1.224 2.107 2.125 2.107.522 0 1.171-.162 1.801-.828l.018.018c-.27 1.062-.45 1.765-1.08 2.648M189.3 10.151c0-1.369-.18-3.602-1.189-5.692-1.063-2.161-2.54-3.332-2.738-3.332-.072 0-.162.036-.162.144 0 .054 0 .09.306.396 1.801 1.82 2.81 4.792 2.81 8.466 0 3.495-.847 6.503-2.936 8.628-.18.162-.18.198-.18.252 0 .108.09.144.162.144.234 0 1.711-1.297 2.594-3.062.918-1.837 1.333-3.782 1.333-5.944M198.54 10.133a.96.96 0 0 0-.955-.955.96.96 0 0 0-.954.955.96.96 0 0 0 .954.955.96.96 0 0 0 .955-.955M212.013 11.61h-.396c-.054.306-.198 1.297-.378 1.585-.126.162-1.153.162-1.693.162h-3.333c.487-.414 1.585-1.567 2.054-1.999 2.738-2.522 3.746-3.458 3.746-5.242 0-2.071-1.639-3.458-3.728-3.458s-3.315 1.783-3.315 3.332c0 .919.793.919.847.919.378 0 .847-.27.847-.847 0-.504-.343-.846-.847-.846-.162 0-.198 0-.252.018.342-1.225 1.315-2.054 2.486-2.054 1.531 0 2.467 1.28 2.467 2.936 0 1.531-.882 2.864-1.909 4.017l-3.639 4.07v.433h6.575zM221.967 2.586c.018-.072.054-.18.054-.27 0-.18-.18-.18-.217-.18-.018 0-.9.072-.99.09-.306.018-.577.054-.901.072-.45.036-.576.054-.576.378 0 .18.144.18.396.18.883 0 .901.162.901.342 0 .108-.036.252-.054.306l-1.099 4.377c-.198-.468-.685-1.188-1.621-1.188-2.036 0-4.233 2.63-4.233 5.295 0 1.784 1.045 2.828 2.269 2.828.991 0 1.838-.774 2.342-1.369.18 1.063 1.027 1.37 1.567 1.37q.81 0 1.297-.973c.288-.613.54-1.712.54-1.784 0-.09-.072-.162-.18-.162-.162 0-.18.09-.252.36-.27 1.063-.612 2.198-1.351 2.198-.522 0-.558-.468-.558-.829 0-.072 0-.45.126-.954zm-3.639 9.907c-.09.306-.09.342-.342.684-.396.505-1.189 1.279-2.036 1.279-.738 0-1.152-.666-1.152-1.73 0-.99.558-3.007.9-3.764.613-1.26 1.459-1.91 2.162-1.91 1.189 0 1.423 1.478 1.423 1.622 0 .018-.054.252-.072.288zM230.609 7.287c-.577.108-.793.54-.793.883 0 .432.343.576.595.576.54 0 .918-.468.918-.955 0-.756-.864-1.098-1.621-1.098-1.099 0-1.711 1.08-1.873 1.423-.414-1.351-1.531-1.423-1.855-1.423-1.838 0-2.81 2.36-2.81 2.756 0 .072.072.162.198.162.144 0 .18-.108.216-.18.612-2 1.819-2.378 2.342-2.378.81 0 .972.756.972 1.189 0 .396-.108.81-.324 1.675l-.612 2.468c-.271 1.08-.793 2.071-1.748 2.071-.09 0-.54 0-.918-.234a.93.93 0 0 0 .792-.883c0-.36-.27-.576-.612-.576-.432 0-.901.378-.901.954 0 .757.847 1.1 1.621 1.1.865 0 1.477-.685 1.856-1.424.288 1.063 1.189 1.423 1.855 1.423 1.837 0 2.81-2.36 2.81-2.756 0-.09-.072-.162-.18-.162-.162 0-.18.09-.234.234-.487 1.585-1.531 2.324-2.342 2.324-.63 0-.973-.468-.973-1.207 0-.396.072-.684.361-1.873l.63-2.45c.27-1.08.883-1.873 1.711-1.873.036 0 .541 0 .919.234M241.154 2.586c.018-.072.054-.18.054-.27 0-.18-.18-.18-.216-.18-.018 0-.901.072-.991.09-.306.018-.576.054-.901.072-.45.036-.576.054-.576.378 0 .18.144.18.396.18.883 0 .901.162.901.342 0 .108-.036.252-.054.306l-1.099 4.377c-.198-.468-.684-1.188-1.621-1.188-2.036 0-4.233 2.63-4.233 5.295 0 1.784 1.045 2.828 2.27 2.828.99 0 1.837-.774 2.341-1.369.18 1.063 1.027 1.37 1.567 1.37q.811 0 1.297-.973c.288-.613.541-1.712.541-1.784 0-.09-.073-.162-.181-.162-.162 0-.18.09-.252.36-.27 1.063-.612 2.198-1.351 2.198-.522 0-.558-.468-.558-.829 0-.072 0-.45.126-.954zm-3.639 9.907c-.09.306-.09.342-.342.684-.396.505-1.189 1.279-2.035 1.279-.739 0-1.153-.666-1.153-1.73 0-.99.558-3.007.9-3.764.613-1.26 1.459-1.91 2.162-1.91 1.189 0 1.423 1.478 1.423 1.622 0 .018-.054.252-.072.288zM245.995 16.654c-.486.684-1.188 1.296-2.071 1.296-.216 0-1.081-.036-1.351-.864a.911.911 0 0 0 1.081-.865c0-.414-.343-.558-.613-.558-.288 0-.918.216-.918 1.099 0 .918.774 1.549 1.801 1.549 1.801 0 3.62-1.657 4.125-3.657l1.765-7.025c.018-.09.054-.198.054-.306 0-.27-.216-.45-.486-.45-.162 0-.541.072-.685.612l-1.333 5.296c-.09.324-.09.36-.234.558-.36.505-.955 1.117-1.819 1.117-1.009 0-1.099-.99-1.099-1.477 0-1.027.486-2.414.973-3.71.198-.523.306-.775.306-1.135 0-.757-.54-1.441-1.423-1.441-1.657 0-2.324 2.611-2.324 2.756 0 .072.072.162.199.162.162 0 .18-.072.252-.325.432-1.513 1.116-2.233 1.819-2.233.162 0 .468 0 .468.594 0 .469-.198.991-.468 1.675-.883 2.36-.883 2.955-.883 3.387 0 1.711 1.225 2.107 2.126 2.107.522 0 1.171-.162 1.801-.828l.018.018c-.27 1.062-.45 1.765-1.081 2.648M53.47 54.59c.253 0 .577 0 .577-.324 0-.342-.306-.342-.577-.342H42.861c-.252 0-.576 0-.576.324 0 .342.306.342.576.342zm0 3.35c.253 0 .577 0 .577-.324 0-.342-.306-.342-.577-.342H42.861c-.252 0-.576 0-.576.324 0 .343.306.343.576.343zM68.427 45.988c-.703.18-1.28.72-1.73 1.64-.432.864-.558 1.422-.9 3.98-.432 3.296-.594 4.845-.81 7.944a93 93 0 0 1-.199 2.521c-.234 2.54-.702 3.405-1.819 3.423-.252 0-.739-.144-.955-.27l-.144-.09.198-.109c.559-.306.595-1.008.055-1.333a.733.733 0 0 0-1.01.289c-.143.216-.125.666.019.954.324.63 1.17 1.027 2.053.973 1.315-.09 2.324-1.333 2.756-3.368.108-.559.522-3.53.72-5.332.199-1.657.289-2.684.433-4.935.288-3.873.432-4.756.9-5.422.397-.54 1.153-.667 1.946-.288l.234.108-.198.126c-.432.234-.576.684-.36 1.044.324.523.99.523 1.315 0 .09-.144.108-.234.09-.468-.036-.378-.145-.594-.415-.864-.504-.505-1.44-.721-2.18-.523M75.812 43.02c0-.324-.024-.336-.348-.336-.493.48-1.13.769-2.27.769v.396c.324 0 .973 0 1.67-.324v6.16c0 .444-.037.588-1.178.588h-.42v.397c.492-.036 1.525-.036 2.066-.036s1.585 0 2.077.036v-.397h-.42c-1.141 0-1.177-.144-1.177-.588zM74.411 62.85c0-1.285-.132-2.065-.528-2.834-.529-1.056-1.501-1.32-2.162-1.32-1.513 0-2.065 1.128-2.233 1.464-.433.877-.457 2.066-.457 2.69 0 .793.036 2.006.613 2.966.552.889 1.44 1.117 2.077 1.117.576 0 1.61-.18 2.21-1.369.444-.864.48-1.933.48-2.714m-2.69 3.747c-.408 0-1.237-.192-1.489-1.453-.132-.685-.132-1.814-.132-2.438 0-.829 0-1.67.132-2.33.252-1.224 1.189-1.344 1.49-1.344.407 0 1.236.204 1.476 1.296.144.66.144 1.561.144 2.378 0 .709 0 1.79-.144 2.462-.252 1.26-1.08 1.429-1.477 1.429M91.234 48.376c.018-.072.054-.18.054-.27 0-.18-.18-.18-.216-.18-.018 0-.901.072-.991.09-.306.018-.577.054-.9.072-.451.036-.577.054-.577.378 0 .18.144.18.396.18.883 0 .9.162.9.343 0 .108-.035.252-.053.306l-1.099 4.377c-.198-.469-.684-1.19-1.621-1.19-2.036 0-4.233 2.63-4.233 5.297 0 1.783 1.045 2.828 2.27 2.828.99 0 1.837-.775 2.341-1.37.18 1.063 1.027 1.37 1.567 1.37q.81 0 1.297-.973c.288-.612.54-1.711.54-1.783 0-.09-.072-.163-.18-.163-.162 0-.18.09-.252.36-.27 1.063-.612 2.198-1.35 2.198-.523 0-.56-.468-.56-.828 0-.072 0-.45.127-.955zm-3.639 9.907c-.09.306-.09.342-.342.684-.396.505-1.189 1.28-2.035 1.28-.739 0-1.153-.667-1.153-1.73 0-.99.558-3.008.9-3.765.613-1.26 1.46-1.909 2.162-1.909 1.189 0 1.423 1.477 1.423 1.621 0 .018-.054.253-.072.288zM99.876 53.077c-.577.108-.793.54-.793.883 0 .432.343.576.595.576.54 0 .918-.468.918-.954 0-.757-.864-1.1-1.62-1.1-1.1 0-1.712 1.082-1.874 1.424-.414-1.351-1.531-1.423-1.855-1.423-1.838 0-2.81 2.36-2.81 2.756 0 .072.072.162.198.162.144 0 .18-.108.216-.18.612-2 1.82-2.378 2.342-2.378.81 0 .972.757.972 1.189 0 .396-.108.81-.324 1.675l-.612 2.468c-.27 1.08-.793 2.071-1.748 2.071-.09 0-.54 0-.918-.234a.93.93 0 0 0 .792-.883c0-.36-.27-.576-.612-.576-.432 0-.9.378-.9.955 0 .756.846 1.098 1.62 1.098.865 0 1.477-.684 1.856-1.422.288 1.062 1.188 1.422 1.855 1.422 1.837 0 2.81-2.36 2.81-2.755 0-.09-.072-.163-.18-.163-.162 0-.18.09-.234.235-.487 1.585-1.531 2.323-2.342 2.323-.63 0-.973-.468-.973-1.207 0-.396.072-.684.36-1.873l.631-2.45c.27-1.08.883-1.873 1.711-1.873.036 0 .54 0 .919.234M112.756 45.988c-.702.18-1.279.72-1.729 1.64-.432.864-.558 1.422-.901 3.98-.432 3.296-.594 4.845-.81 7.944a93 93 0 0 1-.198 2.521c-.234 2.54-.703 3.405-1.819 3.423-.253 0-.739-.144-.955-.27l-.144-.09.198-.109c.558-.306.594-1.008.054-1.333a.734.734 0 0 0-1.009.289c-.144.216-.126.666.018.954.324.63 1.171 1.027 2.054.973 1.315-.09 2.323-1.333 2.756-3.368.108-.559.522-3.53.72-5.332.198-1.657.288-2.684.432-4.935.289-3.873.433-4.756.901-5.422.396-.54 1.153-.667 1.945-.288l.235.108-.199.126c-.432.234-.576.684-.36 1.044.324.523.991.523 1.315 0 .09-.144.108-.234.09-.468-.036-.378-.144-.594-.414-.864-.505-.505-1.441-.721-2.18-.523M122.387 45.878a.69.69 0 0 0-.552.649c0 .264.204.444.468.444a.686.686 0 0 0 .672-.72c0-.685-.756-.877-1.2-.877-.565 0-1.021.396-1.297.864-.264-.636-.889-.864-1.381-.864-1.309 0-2.042 1.5-2.042 1.837 0 .108.084.156.18.156.145 0 .169-.06.205-.204.276-.877.996-1.453 1.621-1.453.468 0 .696.336.696.768 0 .24-.144.793-.24 1.177-.084.349-.348 1.417-.408 1.645-.168.649-.601 1.153-1.141 1.153-.048 0-.36 0-.612-.168.552-.132.552-.636.552-.648 0-.276-.216-.445-.48-.445-.325 0-.673.277-.673.733 0 .552.589.864 1.201.864.636 0 1.081-.48 1.297-.864.264.588.816.864 1.393.864 1.309 0 2.029-1.5 2.029-1.837 0-.12-.096-.156-.18-.156-.144 0-.168.084-.204.204-.24.805-.925 1.453-1.621 1.453-.396 0-.685-.264-.685-.768 0-.24.072-.517.241-1.19.084-.36.348-1.416.408-1.644.168-.625.588-1.141 1.129-1.141.06 0 .372 0 .624.168M118.74 62.85c0-1.285-.132-2.065-.528-2.834-.528-1.056-1.501-1.32-2.161-1.32-1.513 0-2.066 1.128-2.234 1.464-.432.877-.456 2.066-.456 2.69 0 .793.036 2.006.612 2.966.553.889 1.441 1.117 2.078 1.117.576 0 1.609-.18 2.209-1.369.444-.864.48-1.933.48-2.714m-2.689 3.747c-.409 0-1.237-.192-1.489-1.453-.133-.685-.133-1.814-.133-2.438 0-.829 0-1.67.133-2.33.252-1.224 1.188-1.344 1.489-1.344.408 0 1.236.204 1.477 1.296.144.66.144 1.561.144 2.378 0 .709 0 1.79-.144 2.462-.253 1.26-1.081 1.429-1.477 1.429M130.158 64.803c0-.054 0-.09-.307-.396-1.801-1.82-2.81-4.791-2.81-8.466 0-3.494.847-6.502 2.936-8.628.181-.162.181-.198.181-.252 0-.108-.091-.144-.163-.144-.234 0-1.711 1.297-2.593 3.062-.919 1.82-1.333 3.747-1.333 5.962 0 1.603.252 3.747 1.189 5.674 1.062 2.162 2.539 3.333 2.737 3.333.072 0 .163-.037.163-.145M139.088 57.4h-.396c-.055.306-.199 1.297-.379 1.585-.126.162-1.153.162-1.693.162h-3.332c.486-.414 1.585-1.567 2.053-1.999 2.738-2.522 3.747-3.458 3.747-5.242 0-2.071-1.639-3.458-3.729-3.458s-3.314 1.783-3.314 3.332c0 .919.792.919.847.919.378 0 .846-.27.846-.847 0-.504-.342-.846-.846-.846-.163 0-.199 0-.253.018.343-1.225 1.315-2.054 2.486-2.054 1.531 0 2.468 1.28 2.468 2.936 0 1.531-.883 2.864-1.91 4.017l-3.638 4.071v.432h6.574zM148.519 53.077c-.577.108-.793.54-.793.883 0 .432.342.576.595.576.54 0 .918-.468.918-.954 0-.757-.864-1.1-1.621-1.1-1.099 0-1.711 1.082-1.873 1.424-.415-1.351-1.531-1.423-1.856-1.423-1.837 0-2.809 2.36-2.809 2.756 0 .072.072.162.198.162.144 0 .18-.108.216-.18.612-2 1.819-2.378 2.341-2.378.811 0 .973.757.973 1.189 0 .396-.108.81-.324 1.675l-.613 2.468c-.27 1.08-.792 2.071-1.747 2.071-.09 0-.54 0-.918-.234a.93.93 0 0 0 .792-.883c0-.36-.27-.576-.612-.576-.433 0-.901.378-.901.955 0 .756.847 1.098 1.621 1.098.865 0 1.477-.684 1.856-1.422.288 1.062 1.188 1.422 1.855 1.422 1.837 0 2.81-2.36 2.81-2.755 0-.09-.072-.163-.18-.163-.163 0-.181.09-.235.235-.486 1.585-1.531 2.323-2.341 2.323-.631 0-.973-.468-.973-1.207 0-.396.072-.684.36-1.873l.631-2.45c.27-1.08.882-1.873 1.711-1.873.036 0 .54 0 .919.234M161.193 56.266h4.971c.253 0 .577 0 .577-.325 0-.342-.306-.342-.577-.342h-4.971v-4.971c0-.252 0-.577-.324-.577-.343 0-.343.306-.343.577v4.971h-4.971c-.252 0-.576 0-.576.324 0 .343.306.343.576.343h4.971v4.971c0 .252 0 .576.325.576.342 0 .342-.306.342-.576zM179.652 57.4h-.396c-.054.306-.199 1.297-.379 1.585-.126.162-1.152.162-1.693.162h-3.332c.486-.414 1.585-1.567 2.053-1.999 2.738-2.522 3.747-3.458 3.747-5.242 0-2.071-1.639-3.458-3.729-3.458s-3.314 1.783-3.314 3.332c0 .919.793.919.847.919.378 0 .846-.27.846-.847 0-.504-.342-.846-.846-.846-.163 0-.199 0-.253.018.343-1.225 1.315-2.054 2.486-2.054 1.531 0 2.468 1.28 2.468 2.936 0 1.531-.883 2.864-1.909 4.017l-3.639 4.071v.432h6.575zM185.282 62.444c-.486.684-1.189 1.297-2.071 1.297-.217 0-1.081-.036-1.351-.865a.91.91 0 0 0 1.08-.865c0-.414-.342-.558-.612-.558-.288 0-.919.216-.919 1.099 0 .919.775 1.549 1.802 1.549 1.801 0 3.62-1.657 4.124-3.657l1.766-7.024c.018-.09.054-.199.054-.307 0-.27-.216-.45-.487-.45-.162 0-.54.072-.684.613l-1.333 5.295c-.09.324-.09.36-.234.559-.36.504-.955 1.116-1.819 1.116-1.009 0-1.099-.99-1.099-1.477 0-1.026.486-2.413.973-3.71.198-.523.306-.775.306-1.135 0-.757-.541-1.441-1.423-1.441-1.657 0-2.324 2.612-2.324 2.756 0 .072.072.162.198.162.162 0 .18-.072.252-.324.433-1.513 1.117-2.234 1.82-2.234.162 0 .468 0 .468.595 0 .468-.198.99-.468 1.675-.883 2.36-.883 2.954-.883 3.386 0 1.711 1.225 2.107 2.126 2.107.522 0 1.17-.162 1.801-.828l.018.018c-.27 1.063-.45 1.765-1.081 2.648M194.87 55.941c0-1.369-.18-3.602-1.189-5.692-1.062-2.161-2.539-3.332-2.738-3.332-.072 0-.162.036-.162.144 0 .054 0 .09.307.396 1.801 1.82 2.81 4.792 2.81 8.466 0 3.495-.847 6.503-2.937 8.628-.18.162-.18.198-.18.252 0 .108.09.145.162.145.235 0 1.712-1.297 2.594-3.063.919-1.837 1.333-3.782 1.333-5.944M205.71 48.376c.018-.072.054-.18.054-.27 0-.18-.18-.18-.216-.18-.018 0-.901.072-.991.09-.306.018-.576.054-.901.072-.45.036-.576.054-.576.378 0 .18.144.18.396.18.883 0 .901.162.901.343 0 .108-.036.252-.054.306l-1.099 4.377c-.198-.469-.684-1.19-1.621-1.19-2.035 0-4.233 2.63-4.233 5.297 0 1.783 1.045 2.828 2.27 2.828.99 0 1.837-.775 2.341-1.37.18 1.063 1.027 1.37 1.567 1.37q.811 0 1.297-.973c.288-.612.541-1.711.541-1.783 0-.09-.072-.163-.18-.163-.163 0-.181.09-.253.36-.27 1.063-.612 2.198-1.351 2.198-.522 0-.558-.468-.558-.828 0-.072 0-.45.126-.955zm-3.639 9.907c-.09.306-.09.342-.342.684-.396.505-1.189 1.28-2.035 1.28-.739 0-1.153-.667-1.153-1.73 0-.99.558-3.008.901-3.765.612-1.26 1.459-1.909 2.161-1.909 1.189 0 1.423 1.477 1.423 1.621 0 .018-.054.253-.072.288zM210.551 62.444c-.486.684-1.188 1.297-2.071 1.297-.216 0-1.081-.036-1.351-.865a.91.91 0 0 0 1.081-.865c0-.414-.342-.558-.613-.558-.288 0-.918.216-.918 1.099 0 .919.774 1.549 1.801 1.549 1.801 0 3.621-1.657 4.125-3.657l1.765-7.024c.018-.09.054-.199.054-.307 0-.27-.216-.45-.486-.45-.162 0-.541.072-.685.613l-1.333 5.295c-.09.324-.09.36-.234.559-.36.504-.954 1.116-1.819 1.116-1.009 0-1.099-.99-1.099-1.477 0-1.026.487-2.413.973-3.71.198-.523.306-.775.306-1.135 0-.757-.54-1.441-1.423-1.441-1.657 0-2.323 2.612-2.323 2.756 0 .072.072.162.198.162.162 0 .18-.072.252-.324.432-1.513 1.117-2.234 1.819-2.234.162 0 .468 0 .468.595 0 .468-.198.99-.468 1.675-.883 2.36-.883 2.954-.883 3.386 0 1.711 1.225 2.107 2.126 2.107.522 0 1.171-.162 1.801-.828l.018.018c-.27 1.063-.45 1.765-1.081 2.648M59.356 100.38c.252 0 .576 0 .576-.324 0-.342-.306-.342-.577-.342H48.747c-.252 0-.576 0-.576.324 0 .342.306.342.576.342zm0 3.351c.252 0 .576 0 .576-.325 0-.342-.306-.342-.577-.342H48.747c-.252 0-.576 0-.576.324 0 .343.306.343.576.343zM74.312 91.779c-.703.18-1.279.72-1.73 1.639-.431.864-.558 1.423-.9 3.98-.432 3.297-.594 4.846-.81 7.944a93 93 0 0 1-.198 2.522c-.235 2.539-.703 3.404-1.82 3.422-.252 0-.738-.144-.954-.27l-.145-.09.199-.108c.558-.307.594-1.009.054-1.333a.733.733 0 0 0-1.009.288c-.144.216-.126.666.018.955.324.63 1.17 1.026 2.053.972 1.315-.09 2.324-1.333 2.756-3.368.108-.558.523-3.531.72-5.332.199-1.657.289-2.684.433-4.935.288-3.873.432-4.755.9-5.422.397-.54 1.153-.666 1.946-.288l.234.108-.198.126c-.432.234-.576.684-.36 1.045.324.522.99.522 1.315 0 .09-.144.108-.234.09-.469-.036-.378-.144-.594-.415-.864-.504-.505-1.44-.72-2.179-.523M81.697 88.81c0-.324-.024-.336-.348-.336-.492.48-1.129.769-2.27.769v.396c.325 0 .973 0 1.67-.324v6.16c0 .444-.036.588-1.177.588h-.42v.397c.492-.036 1.524-.036 2.065-.036s1.585 0 2.077.036v-.397h-.42c-1.14 0-1.177-.144-1.177-.588zM80.296 108.64c0-1.285-.132-2.065-.528-2.834-.529-1.056-1.501-1.321-2.162-1.321-1.513 0-2.065 1.129-2.233 1.465-.433.877-.457 2.066-.457 2.69 0 .793.037 2.006.613 2.966.552.889 1.44 1.117 2.077 1.117.577 0 1.61-.18 2.21-1.369.444-.864.48-1.933.48-2.714m-2.69 3.747c-.408 0-1.237-.192-1.489-1.453-.132-.685-.132-1.813-.132-2.438 0-.828 0-1.669.132-2.329.252-1.225 1.19-1.345 1.49-1.345.408 0 1.236.204 1.476 1.296.144.661.144 1.562.144 2.378 0 .709 0 1.789-.144 2.462-.252 1.261-1.08 1.429-1.477 1.429M97.119 94.166c.018-.072.054-.18.054-.27 0-.18-.18-.18-.216-.18-.018 0-.9.072-.991.09-.306.018-.576.054-.9.072-.45.036-.577.054-.577.378 0 .18.144.18.396.18.883 0 .9.162.9.343 0 .108-.035.252-.053.306l-1.099 4.377c-.198-.469-.684-1.189-1.621-1.189-2.035 0-4.233 2.63-4.233 5.296 0 1.783 1.045 2.828 2.27 2.828.99 0 1.837-.775 2.341-1.369.18 1.062 1.027 1.369 1.567 1.369q.81 0 1.297-.973c.288-.613.54-1.711.54-1.783 0-.09-.072-.162-.18-.162-.162 0-.18.09-.252.36-.27 1.063-.612 2.197-1.35 2.197-.523 0-.559-.468-.559-.828 0-.072 0-.451.126-.955zm-3.639 9.907c-.09.306-.09.342-.342.684-.396.505-1.189 1.279-2.035 1.279-.739 0-1.153-.666-1.153-1.729 0-.991.558-3.008.9-3.764.613-1.261 1.46-1.91 2.162-1.91 1.189 0 1.423 1.477 1.423 1.621 0 .018-.054.253-.072.289zM105.761 98.867c-.576.108-.792.54-.792.883 0 .432.342.576.594.576.54 0 .919-.468.919-.954 0-.757-.865-1.1-1.622-1.1-1.098 0-1.711 1.082-1.873 1.424-.414-1.351-1.531-1.423-1.855-1.423-1.837 0-2.81 2.36-2.81 2.756 0 .072.072.162.198.162.144 0 .18-.108.216-.18.613-2 1.819-2.378 2.342-2.378.81 0 .973.757.973 1.189 0 .396-.109.811-.325 1.675l-.612 2.468c-.27 1.081-.793 2.071-1.747 2.071-.09 0-.54 0-.919-.234a.93.93 0 0 0 .793-.882c0-.361-.27-.577-.613-.577-.432 0-.9.378-.9.955 0 .756.846 1.099 1.62 1.099.865 0 1.478-.685 1.856-1.423.288 1.062 1.189 1.423 1.855 1.423 1.837 0 2.81-2.36 2.81-2.756 0-.09-.072-.162-.18-.162-.162 0-.18.09-.234.234-.486 1.585-1.531 2.323-2.342 2.323-.63 0-.972-.468-.972-1.207 0-.396.072-.684.36-1.873l.63-2.45c.27-1.08.883-1.873 1.711-1.873.036 0 .541 0 .919.234M111.749 110.719v-.666h-1.747v-16.68h1.747v-.666h-2.414v18.012zM120.07 103.19h-.396c-.054.307-.198 1.297-.378 1.586-.126.162-1.153.162-1.693.162h-3.333c.487-.415 1.585-1.567 2.054-2 2.738-2.521 3.746-3.458 3.746-5.241 0-2.072-1.639-3.459-3.728-3.459s-3.315 1.784-3.315 3.333c0 .918.793.918.847.918.378 0 .847-.27.847-.846 0-.505-.343-.847-.847-.847-.162 0-.198 0-.252.018.342-1.225 1.315-2.053 2.486-2.053 1.531 0 2.467 1.279 2.467 2.936 0 1.53-.882 2.864-1.909 4.016l-3.639 4.071v.433h6.575zM129.501 98.867c-.576.108-.792.54-.792.883 0 .432.342.576.594.576.54 0 .919-.468.919-.954 0-.757-.865-1.1-1.621-1.1-1.099 0-1.712 1.082-1.874 1.424-.414-1.351-1.531-1.423-1.855-1.423-1.837 0-2.81 2.36-2.81 2.756 0 .072.072.162.198.162.144 0 .18-.108.216-.18.613-2 1.82-2.378 2.342-2.378.811 0 .973.757.973 1.189 0 .396-.108.811-.325 1.675l-.612 2.468c-.27 1.081-.793 2.071-1.747 2.071-.09 0-.541 0-.919-.234a.93.93 0 0 0 .793-.882c0-.361-.27-.577-.613-.577-.432 0-.9.378-.9.955 0 .756.846 1.099 1.621 1.099.864 0 1.477-.685 1.855-1.423.288 1.062 1.189 1.423 1.855 1.423 1.838 0 2.81-2.36 2.81-2.756 0-.09-.072-.162-.18-.162-.162 0-.18.09-.234.234-.486 1.585-1.531 2.323-2.342 2.323-.63 0-.972-.468-.972-1.207 0-.396.072-.684.36-1.873l.63-2.45c.271-1.08.883-1.873 1.712-1.873.036 0 .54 0 .918.234M138.447 101.713a.96.96 0 0 0-.955-.954.96.96 0 0 0-.954.954.96.96 0 0 0 .954.955.96.96 0 0 0 .955-.955M148.732 108.234c-.486.684-1.189 1.297-2.071 1.297-.217 0-1.081-.036-1.351-.865a.91.91 0 0 0 1.08-.864c0-.415-.342-.559-.612-.559-.288 0-.919.216-.919 1.099 0 .919.775 1.549 1.802 1.549 1.801 0 3.62-1.657 4.124-3.657l1.766-7.024c.018-.09.054-.198.054-.307 0-.27-.216-.45-.487-.45-.162 0-.54.072-.684.612l-1.333 5.296c-.09.324-.09.36-.234.559-.36.504-.955 1.116-1.819 1.116-1.009 0-1.099-.99-1.099-1.477 0-1.026.486-2.413.972-3.71.199-.523.307-.775.307-1.135 0-.757-.541-1.441-1.423-1.441-1.657 0-2.324 2.612-2.324 2.756 0 .072.072.162.198.162.162 0 .18-.072.252-.324.433-1.513 1.117-2.234 1.82-2.234.162 0 .468 0 .468.595 0 .468-.198.99-.468 1.675-.883 2.359-.883 2.954-.883 3.386 0 1.711 1.225 2.108 2.126 2.108.522 0 1.17-.163 1.801-.829l.018.018c-.27 1.063-.451 1.765-1.081 2.648M164.43 102.056h4.972c.252 0 .576 0 .576-.325 0-.342-.306-.342-.576-.342h-4.972v-4.971c0-.253 0-.577-.324-.577-.342 0-.342.306-.342.577v4.971h-4.972c-.252 0-.576 0-.576.324 0 .343.306.343.576.343h4.972v4.971c0 .252 0 .576.324.576.342 0 .342-.306.342-.576zM179.701 108.234c-.486.684-1.189 1.297-2.072 1.297-.216 0-1.08-.036-1.35-.865a.91.91 0 0 0 1.08-.864c0-.415-.342-.559-.612-.559-.288 0-.919.216-.919 1.099 0 .919.775 1.549 1.801 1.549 1.802 0 3.621-1.657 4.125-3.657l1.766-7.024c.018-.09.054-.198.054-.307 0-.27-.217-.45-.487-.45-.162 0-.54.072-.684.612l-1.333 5.296c-.09.324-.09.36-.234.559-.361.504-.955 1.116-1.82 1.116-1.008 0-1.098-.99-1.098-1.477 0-1.026.486-2.413.972-3.71.198-.523.307-.775.307-1.135 0-.757-.541-1.441-1.423-1.441-1.658 0-2.324 2.612-2.324 2.756 0 .072.072.162.198.162.162 0 .18-.072.252-.324.433-1.513 1.117-2.234 1.82-2.234.162 0 .468 0 .468.595 0 .468-.198.99-.468 1.675-.883 2.359-.883 2.954-.883 3.386 0 1.711 1.225 2.108 2.125 2.108.523 0 1.171-.163 1.802-.829l.018.018c-.271 1.063-.451 1.765-1.081 2.648M187.596 97.23c.192-.18.696-.576.888-.744.745-.685 1.453-1.345 1.453-2.438 0-1.429-1.2-2.354-2.701-2.354-1.441 0-2.39 1.093-2.39 2.162 0 .588.468.672.636.672.253 0 .625-.18.625-.636 0-.625-.601-.625-.745-.625.349-.876 1.153-1.176 1.742-1.176 1.116 0 1.693.948 1.693 1.957 0 1.249-.877 2.162-2.294 3.614l-1.513 1.561c-.144.133-.144.157-.144.457h4.743l.348-2.15h-.372c-.036.24-.132.841-.276 1.07-.072.095-.985.095-1.177.095h-2.137zM194.132 92.707h-2.414v.667h1.747v16.679h-1.747v.666h2.414zM199.103 93.356c0-.325 0-.649-.361-.649-.36 0-.36.324-.36.649v16.715c0 .324 0 .648.36.648.361 0 .361-.324.361-.648zM207.258 94.889a.69.69 0 0 0-.552.648c0 .264.204.444.468.444a.687.687 0 0 0 .673-.72c0-.685-.757-.877-1.201-.877-.564 0-1.021.397-1.297.865-.264-.637-.889-.865-1.381-.865-1.309 0-2.041 1.501-2.041 1.838 0 .108.084.156.18.156.144 0 .168-.06.204-.204.276-.877.997-1.454 1.621-1.454.468 0 .697.337.697.769 0 .24-.145.793-.241 1.177-.084.348-.348 1.417-.408 1.645-.168.648-.6 1.153-1.141 1.153-.048 0-.36 0-.612-.168.552-.132.552-.637.552-.649 0-.276-.216-.444-.48-.444-.324 0-.673.276-.673.732 0 .553.589.865 1.201.865.637 0 1.081-.48 1.297-.865.264.589.817.865 1.393.865 1.309 0 2.03-1.501 2.03-1.837 0-.12-.097-.156-.181-.156-.144 0-.168.084-.204.204-.24.804-.924 1.453-1.621 1.453-.396 0-.684-.264-.684-.769 0-.24.072-.516.24-1.189.084-.36.348-1.416.408-1.645.168-.624.589-1.14 1.129-1.14.06 0 .372 0 .624.168M207.114 106.839c0-1.285-.132-2.066-.528-2.834-.529-1.057-1.501-1.321-2.162-1.321-1.513 0-2.065 1.129-2.233 1.465-.432.876-.457 2.065-.457 2.69 0 .792.037 2.005.613 2.966.552.888 1.441 1.117 2.077 1.117.577 0 1.609-.181 2.21-1.369.444-.865.48-1.934.48-2.714m-2.69 3.746c-.408 0-1.236-.192-1.489-1.453-.132-.684-.132-1.813-.132-2.437 0-.829 0-1.67.132-2.33.253-1.225 1.189-1.345 1.489-1.345.409 0 1.237.204 1.477 1.297.144.66.144 1.561.144 2.378 0 .708 0 1.789-.144 2.461-.252 1.261-1.08 1.429-1.477 1.429M35.451 146.171c.252 0 .577 0 .577-.325 0-.342-.307-.342-.577-.342h-10.61c-.251 0-.576 0-.576.324 0 .343.307.343.577.343zm0 3.35c.252 0 .577 0 .577-.324 0-.343-.307-.343-.577-.343h-10.61c-.251 0-.576 0-.576.325 0 .342.307.342.577.342zM50.408 137.569c-.703.18-1.28.72-1.73 1.639-.432.864-.558 1.423-.9 3.98-.432 3.297-.595 4.846-.81 7.944a93 93 0 0 1-.199 2.522c-.234 2.539-.702 3.404-1.82 3.422-.251 0-.738-.144-.954-.27l-.144-.09.198-.108c.559-.307.595-1.009.054-1.333a.733.733 0 0 0-1.008.288c-.145.216-.127.666.018.955.324.63 1.17 1.026 2.053.972 1.315-.09 2.324-1.333 2.756-3.368.108-.558.522-3.53.72-5.332.199-1.657.289-2.684.433-4.935.288-3.873.432-4.755.9-5.422.397-.54 1.153-.666 1.946-.288l.234.108-.198.126c-.433.234-.577.685-.36 1.045.324.522.99.522 1.314 0 .09-.144.108-.234.09-.469-.036-.378-.144-.594-.414-.864-.504-.504-1.44-.721-2.18-.522M57.793 134.6c0-.324-.024-.336-.348-.336-.493.48-1.13.769-2.27.769v.396c.324 0 .973 0 1.67-.324v6.16c0 .444-.037.588-1.178.588h-.42v.397c.492-.036 1.525-.036 2.066-.036s1.585 0 2.077.036v-.397h-.42c-1.141 0-1.177-.144-1.177-.588zM56.392 154.43c0-1.285-.132-2.065-.529-2.834-.528-1.056-1.5-1.321-2.161-1.321-1.513 0-2.065 1.129-2.234 1.465-.432.877-.456 2.066-.456 2.69 0 .793.036 2.006.612 2.966.553.889 1.441 1.117 2.078 1.117.576 0 1.61-.18 2.21-1.369.444-.864.48-1.933.48-2.714m-2.69 3.747c-.408 0-1.237-.192-1.49-1.453-.131-.685-.131-1.813-.131-2.438 0-.828 0-1.669.132-2.329.252-1.225 1.189-1.345 1.489-1.345.408 0 1.237.204 1.477 1.297.144.66.144 1.561.144 2.377 0 .709 0 1.789-.144 2.462-.252 1.261-1.08 1.429-1.477 1.429M73.215 139.956c.017-.072.054-.18.054-.27 0-.18-.18-.18-.217-.18-.018 0-.9.072-.99.09-.306.018-.577.054-.9.072-.451.036-.577.054-.577.378 0 .18.144.18.396.18.883 0 .9.162.9.343 0 .108-.035.252-.053.306l-1.1 4.377c-.197-.468-.684-1.189-1.62-1.189-2.036 0-4.233 2.63-4.233 5.296 0 1.783 1.044 2.828 2.27 2.828.99 0 1.837-.775 2.34-1.369.181 1.062 1.028 1.369 1.568 1.369q.81 0 1.297-.973c.288-.612.54-1.711.54-1.783 0-.09-.072-.162-.18-.162-.162 0-.18.09-.252.36-.27 1.063-.612 2.197-1.35 2.197-.523 0-.56-.468-.56-.828 0-.072 0-.451.127-.955zm-3.639 9.907c-.09.306-.09.342-.342.684-.396.505-1.19 1.279-2.036 1.279-.738 0-1.152-.666-1.152-1.729 0-.991.558-3.008.9-3.764.613-1.261 1.46-1.91 2.162-1.91 1.188 0 1.423 1.477 1.423 1.621 0 .018-.054.253-.072.289zM81.857 144.657c-.577.108-.793.541-.793.883 0 .432.342.576.595.576.54 0 .918-.468.918-.954 0-.757-.864-1.099-1.62-1.099-1.1 0-1.712 1.081-1.874 1.423-.415-1.351-1.531-1.423-1.855-1.423-1.838 0-2.81 2.36-2.81 2.756 0 .072.072.162.198.162.144 0 .18-.108.216-.18.612-2 1.82-2.378 2.342-2.378.81 0 .972.757.972 1.189 0 .396-.108.811-.324 1.675l-.612 2.468c-.27 1.081-.793 2.071-1.748 2.071-.09 0-.54 0-.918-.234a.93.93 0 0 0 .792-.882c0-.361-.27-.577-.612-.577-.433 0-.9.378-.9.955 0 .756.846 1.099 1.62 1.099.865 0 1.477-.685 1.856-1.423.288 1.062 1.188 1.423 1.855 1.423 1.837 0 2.81-2.36 2.81-2.756 0-.09-.072-.162-.18-.162-.162 0-.18.09-.234.234-.487 1.585-1.532 2.323-2.342 2.323-.63 0-.973-.468-.973-1.206 0-.397.072-.685.36-1.874l.63-2.449c.271-1.081.883-1.874 1.712-1.874.036 0 .54 0 .919.234M87.845 156.51v-.667h-1.748v-16.679h1.748v-.667H85.43v18.013zM96.166 148.981h-.396c-.054.306-.198 1.296-.379 1.585-.126.162-1.152.162-1.693.162h-3.332c.486-.415 1.585-1.567 2.053-2 2.738-2.521 3.747-3.458 3.747-5.241 0-2.072-1.64-3.459-3.729-3.459s-3.314 1.784-3.314 3.333c0 .918.793.918.847.918.378 0 .846-.27.846-.846 0-.505-.342-.847-.846-.847-.162 0-.198 0-.252.018.342-1.225 1.314-2.053 2.485-2.053 1.531 0 2.468 1.279 2.468 2.936 0 1.531-.883 2.864-1.91 4.016l-3.638 4.071v.433h6.575zM105.597 144.657c-.576.108-.793.541-.793.883 0 .432.343.576.595.576.54 0 .918-.468.918-.954 0-.757-.864-1.099-1.621-1.099-1.098 0-1.711 1.081-1.873 1.423-.414-1.351-1.531-1.423-1.855-1.423-1.838 0-2.81 2.36-2.81 2.756 0 .072.072.162.198.162.144 0 .18-.108.216-.18.612-2 1.819-2.378 2.342-2.378.81 0 .972.757.972 1.189 0 .396-.108.811-.324 1.675l-.612 2.468c-.27 1.081-.793 2.071-1.748 2.071-.09 0-.54 0-.918-.234a.93.93 0 0 0 .792-.882c0-.361-.27-.577-.612-.577-.432 0-.9.378-.9.955 0 .756.846 1.099 1.62 1.099.865 0 1.477-.685 1.856-1.423.288 1.062 1.189 1.423 1.855 1.423 1.837 0 2.81-2.36 2.81-2.756 0-.09-.072-.162-.18-.162-.162 0-.18.09-.234.234-.487 1.585-1.531 2.323-2.342 2.323-.63 0-.973-.468-.973-1.206 0-.397.072-.685.361-1.874l.63-2.449c.27-1.081.883-1.874 1.711-1.874.036 0 .541 0 .919.234M110.468 143.02c.192-.18.696-.576.888-.744.745-.685 1.453-1.345 1.453-2.438 0-1.429-1.2-2.353-2.701-2.353-1.441 0-2.39 1.092-2.39 2.161 0 .589.468.673.636.673.253 0 .625-.181.625-.637 0-.624-.601-.624-.745-.624.348-.877 1.153-1.177 1.741-1.177 1.117 0 1.694.949 1.694 1.957 0 1.249-.877 2.162-2.294 3.615l-1.513 1.561c-.144.132-.144.156-.144.456h4.743l.348-2.149h-.372c-.036.24-.132.84-.276 1.068-.072.096-.985.096-1.177.096h-2.137zM125.401 147.846h4.972c.252 0 .576 0 .576-.325 0-.342-.306-.342-.576-.342h-4.972v-4.971c0-.252 0-.577-.324-.577-.342 0-.342.307-.342.577v4.971h-4.972c-.252 0-.576 0-.576.324 0 .343.306.343.576.343h4.972v4.971c0 .252 0 .576.324.576.342 0 .342-.306.342-.576zM144.473 144.657c-.577.108-.793.541-.793.883 0 .432.342.576.594.576.541 0 .919-.468.919-.954 0-.757-.865-1.099-1.621-1.099-1.099 0-1.711 1.081-1.873 1.423-.415-1.351-1.531-1.423-1.856-1.423-1.837 0-2.81 2.36-2.81 2.756 0 .072.072.162.199.162.144 0 .18-.108.216-.18.612-2 1.819-2.378 2.341-2.378.811 0 .973.757.973 1.189 0 .396-.108.811-.324 1.675l-.613 2.468c-.27 1.081-.792 2.071-1.747 2.071-.09 0-.54 0-.919-.234a.93.93 0 0 0 .793-.882c0-.361-.27-.577-.612-.577-.433 0-.901.378-.901.955 0 .756.847 1.099 1.621 1.099.865 0 1.477-.685 1.855-1.423.289 1.062 1.189 1.423 1.856 1.423 1.837 0 2.81-2.36 2.81-2.756 0-.09-.072-.162-.181-.162-.162 0-.18.09-.234.234-.486 1.585-1.531 2.323-2.341 2.323-.631 0-.973-.468-.973-1.206 0-.397.072-.685.36-1.874l.631-2.449c.27-1.081.882-1.874 1.711-1.874.036 0 .54 0 .919.234M149.343 143.02c.193-.18.697-.576.889-.744.745-.685 1.453-1.345 1.453-2.438 0-1.429-1.201-2.353-2.702-2.353-1.441 0-2.389 1.092-2.389 2.161 0 .589.468.673.636.673.252 0 .624-.181.624-.637 0-.624-.6-.624-.744-.624.348-.877 1.153-1.177 1.741-1.177 1.117 0 1.693.949 1.693 1.957 0 1.249-.876 2.162-2.293 3.615l-1.513 1.561c-.144.132-.144.156-.144.456h4.743l.348-2.149h-.372c-.036.24-.132.84-.276 1.068-.072.096-.985.096-1.177.096h-2.138zM168.96 147.864c.306 0 .63 0 .63-.36 0-.361-.324-.361-.63-.361h-9.745c-.306 0-.63 0-.63.361 0 .36.324.36.63.36zM180.956 156.384c0-.054 0-.09-.306-.397-1.801-1.819-2.81-4.791-2.81-8.465 0-3.495.847-6.503 2.936-8.628.18-.163.18-.199.18-.253 0-.108-.09-.144-.162-.144-.234 0-1.711 1.297-2.594 3.062-.918 1.82-1.333 3.747-1.333 5.963 0 1.603.253 3.746 1.189 5.673 1.063 2.162 2.54 3.333 2.738 3.333.072 0 .162-.036.162-.144M190.031 146.243c0-1.495-.09-2.954-.739-4.323-.738-1.495-2.035-1.892-2.918-1.892-1.045 0-2.323.523-2.99 2.018-.504 1.135-.684 2.251-.684 4.197 0 1.747.126 3.062.774 4.341.703 1.369 1.945 1.801 2.882 1.801 1.567 0 2.468-.937 2.99-1.982.649-1.35.685-3.116.685-4.16m-3.675 5.782c-.576 0-1.747-.325-2.089-2.288-.198-1.081-.198-2.45-.198-3.711 0-1.477 0-2.809.288-3.872.306-1.207 1.225-1.765 1.999-1.765.685 0 1.729.414 2.072 1.963.234 1.027.234 2.45.234 3.674 0 1.207 0 2.576-.198 3.675-.343 1.981-1.477 2.324-2.108 2.324M201.969 147.846h4.972c.252 0 .576 0 .576-.325 0-.342-.306-.342-.576-.342h-4.972v-4.971c0-.252 0-.577-.324-.577-.342 0-.342.307-.342.577v4.971h-4.972c-.252 0-.576 0-.576.324 0 .343.306.343.576.343h4.972v4.971c0 .252 0 .576.324.576.342 0 .342-.306.342-.576zM220.572 146.243c0-1.495-.09-2.954-.738-4.323-.739-1.495-2.036-1.892-2.918-1.892-1.045 0-2.324.523-2.99 2.018-.505 1.135-.685 2.251-.685 4.197 0 1.747.126 3.062.775 4.341.702 1.369 1.945 1.801 2.882 1.801 1.567 0 2.467-.937 2.99-1.982.648-1.35.684-3.116.684-4.16m-3.674 5.782c-.577 0-1.747-.325-2.09-2.288-.198-1.081-.198-2.45-.198-3.711 0-1.477 0-2.809.288-3.872.307-1.207 1.225-1.765 2-1.765.684 0 1.729.414 2.071 1.963.234 1.027.234 2.45.234 3.674 0 1.207 0 2.576-.198 3.675-.342 1.981-1.477 2.324-2.107 2.324M226.401 147.522c0-1.369-.18-3.603-1.189-5.692-1.063-2.162-2.54-3.333-2.738-3.333-.072 0-.162.036-.162.144 0 .054 0 .09.306.397 1.801 1.819 2.81 4.791 2.81 8.466 0 3.494-.847 6.502-2.936 8.628-.18.162-.18.198-.18.252 0 .108.09.144.162.144.234 0 1.711-1.297 2.594-3.062.918-1.838 1.333-3.783 1.333-5.944M230.972 138.497h-2.414v.667h1.747v16.679h-1.747v.667h2.414zM54.558 191.961c.252 0 .576 0 .576-.325 0-.342-.306-.342-.576-.342h-10.61c-.252 0-.576 0-.576.324 0 .343.306.343.577.343zm0 3.35c.252 0 .576 0 .576-.324 0-.342-.306-.342-.576-.342h-10.61c-.252 0-.576 0-.576.324 0 .342.306.342.577.342zM69.514 183.359c-.702.18-1.278.72-1.729 1.639-.432.864-.558 1.423-.9 3.98-.433 3.297-.595 4.846-.811 7.944a93 93 0 0 1-.198 2.522c-.234 2.539-.703 3.404-1.82 3.422-.252 0-.738-.144-.954-.27l-.144-.09.198-.108c.558-.307.594-1.009.054-1.333a.733.733 0 0 0-1.009.288c-.144.216-.126.666.018.955.325.63 1.171 1.026 2.054.972 1.315-.09 2.323-1.333 2.756-3.368.108-.558.522-3.53.72-5.332.198-1.657.288-2.684.432-4.935.289-3.873.433-4.755.901-5.422.396-.54 1.153-.666 1.945-.288l.235.108-.199.126c-.432.234-.576.685-.36 1.045.324.522.99.522 1.315 0 .09-.144.108-.234.09-.468-.036-.379-.144-.595-.414-.865-.505-.504-1.441-.721-2.18-.522M76.9 180.391c0-.325-.025-.337-.349-.337-.492.481-1.129.769-2.27.769v.396c.325 0 .973 0 1.67-.324v6.16c0 .445-.036.589-1.177.589h-.42v.396c.492-.036 1.525-.036 2.065-.036s1.585 0 2.078.036v-.396h-.42c-1.141 0-1.177-.144-1.177-.589zM75.499 200.221c0-1.285-.133-2.066-.529-2.834-.528-1.057-1.5-1.321-2.161-1.321-1.513 0-2.066 1.128-2.234 1.465-.432.876-.456 2.065-.456 2.69 0 .792.036 2.005.612 2.966.553.888 1.441 1.116 2.078 1.116.576 0 1.609-.18 2.21-1.369.444-.864.48-1.933.48-2.713m-2.69 3.746c-.409 0-1.237-.192-1.49-1.453-.132-.684-.132-1.813-.132-2.438 0-.828 0-1.669.133-2.329.252-1.225 1.188-1.345 1.489-1.345.408 0 1.237.204 1.477 1.297.144.66.144 1.561.144 2.377 0 .709 0 1.79-.144 2.462-.252 1.261-1.081 1.429-1.477 1.429M86.575 191.33c-.306.018-.378.036-.378.198 0 .18.09.18.414.18h.829c1.53 0 2.215 1.261 2.215 2.99 0 2.36-1.224 2.991-2.107 2.991-.865 0-2.342-.415-2.864-1.604.576.091 1.099-.234 1.099-.882 0-.523-.379-.883-.883-.883-.432 0-.9.252-.9.937 0 1.603 1.603 2.918 3.602 2.918 2.144 0 3.729-1.639 3.729-3.458 0-1.658-1.333-2.955-3.062-3.261 1.566-.45 2.575-1.765 2.575-3.17 0-1.423-1.477-2.468-3.224-2.468-1.801 0-3.134 1.099-3.134 2.414 0 .721.558.865.828.865.379 0 .811-.271.811-.811 0-.576-.432-.829-.829-.829-.108 0-.144 0-.198.019.685-1.225 2.378-1.225 2.468-1.225.594 0 1.765.27 1.765 2.035 0 .342-.054 1.351-.576 2.126-.54.792-1.153.846-1.64.864zM100.617 190.448c-.576.108-.792.54-.792.882 0 .433.342.577.594.577.541 0 .919-.469.919-.955 0-.756-.865-1.099-1.621-1.099-1.099 0-1.711 1.081-1.873 1.423-.415-1.351-1.532-1.423-1.856-1.423-1.837 0-2.81 2.36-2.81 2.756 0 .072.072.162.198.162.144 0 .18-.108.217-.18.612-1.999 1.819-2.377 2.341-2.377.81 0 .973.756.973 1.188 0 .397-.108.811-.324 1.676l-.613 2.467c-.27 1.081-.792 2.072-1.747 2.072-.09 0-.54 0-.919-.235a.93.93 0 0 0 .793-.882c0-.36-.27-.577-.612-.577-.433 0-.901.379-.901.955 0 .757.846 1.099 1.621 1.099.865 0 1.477-.685 1.855-1.423.288 1.063 1.19 1.423 1.855 1.423 1.838 0 2.81-2.36 2.81-2.756 0-.09-.072-.162-.18-.162-.162 0-.18.09-.234.234-.486 1.585-1.53 2.324-2.341 2.324-.63 0-.973-.469-.973-1.207 0-.396.072-.685.36-1.873l.63-2.45c.27-1.081.883-1.873 1.712-1.873.036 0 .54 0 .918.234M105.488 188.81c.192-.18.697-.576.889-.744.744-.685 1.453-1.345 1.453-2.438 0-1.429-1.201-2.353-2.702-2.353-1.441 0-2.39 1.092-2.39 2.161 0 .589.469.673.637.673.252 0 .624-.181.624-.637 0-.624-.6-.624-.744-.624.348-.877 1.153-1.177 1.741-1.177 1.117 0 1.693.949 1.693 1.957 0 1.249-.876 2.162-2.293 3.615l-1.513 1.561c-.145.132-.145.156-.145.456h4.744l.348-2.149h-.372c-.036.24-.132.84-.277 1.068-.072.097-.984.096-1.176.096h-2.138zM118.292 185.746c.018-.072.054-.18.054-.27 0-.18-.18-.18-.216-.18-.018 0-.9.072-.991.09-.306.018-.576.054-.9.072-.45.036-.577.054-.577.379 0 .18.145.18.397.18.882 0 .9.162.9.342 0 .108-.036.252-.054.306l-1.098 4.377c-.199-.468-.685-1.189-1.622-1.189-2.035 0-4.232 2.63-4.232 5.296 0 1.783 1.044 2.828 2.269 2.828.991 0 1.837-.775 2.342-1.369.18 1.063 1.026 1.369 1.567 1.369q.81 0 1.297-.973c.288-.612.54-1.711.54-1.783 0-.09-.072-.162-.18-.162-.162 0-.18.09-.252.36-.27 1.063-.613 2.198-1.351 2.198-.523 0-.559-.469-.559-.829 0-.072 0-.45.127-.955zm-3.638 9.907c-.09.307-.09.343-.342.685-.397.504-1.189 1.279-2.036 1.279-.738 0-1.153-.667-1.153-1.73 0-.99.559-3.008.901-3.764.612-1.261 1.459-1.909 2.161-1.909 1.189 0 1.423 1.477 1.423 1.621 0 .018-.054.252-.072.288zM126.934 190.448c-.576.108-.792.54-.792.882 0 .433.342.577.594.577.541 0 .919-.469.919-.955 0-.756-.865-1.099-1.621-1.099-1.099 0-1.711 1.081-1.873 1.423-.415-1.351-1.532-1.423-1.856-1.423-1.837 0-2.81 2.36-2.81 2.756 0 .072.072.162.198.162.145 0 .181-.108.217-.18.612-1.999 1.819-2.377 2.341-2.377.811 0 .973.756.973 1.188 0 .397-.108.811-.324 1.676l-.613 2.467c-.27 1.081-.792 2.072-1.747 2.072-.09 0-.54 0-.919-.235a.93.93 0 0 0 .793-.882c0-.36-.27-.577-.612-.577-.433 0-.901.379-.901.955 0 .757.846 1.099 1.621 1.099.865 0 1.477-.685 1.855-1.423.288 1.063 1.189 1.423 1.856 1.423 1.837 0 2.81-2.36 2.81-2.756 0-.09-.073-.162-.181-.162-.162 0-.18.09-.234.234-.486 1.585-1.531 2.324-2.341 2.324-.631 0-.973-.469-.973-1.207 0-.396.072-.685.36-1.873l.631-2.45c.27-1.081.882-1.873 1.711-1.873.036 0 .54 0 .918.234M145.581 191.961c.252 0 .576 0 .576-.325 0-.342-.306-.342-.576-.342h-10.609c-.253 0-.577 0-.577.324 0 .343.306.343.577.343zm0 3.35c.252 0 .576 0 .576-.324 0-.342-.306-.342-.576-.342h-10.609c-.253 0-.577 0-.577.324 0 .342.306.342.577.342zM160.681 190.448c-.576.108-.792.54-.792.882 0 .433.342.577.594.577.541 0 .919-.469.919-.955 0-.756-.865-1.099-1.621-1.099-1.099 0-1.711 1.081-1.874 1.423-.414-1.351-1.531-1.423-1.855-1.423-1.837 0-2.81 2.36-2.81 2.756 0 .072.072.162.198.162.144 0 .18-.108.217-.18.612-1.999 1.819-2.377 2.341-2.377.811 0 .973.756.973 1.188 0 .397-.108.811-.324 1.676l-.613 2.467c-.27 1.081-.792 2.072-1.747 2.072-.09 0-.54 0-.919-.235a.93.93 0 0 0 .793-.882c0-.36-.27-.577-.613-.577-.432 0-.9.379-.9.955 0 .757.846 1.099 1.621 1.099.865 0 1.477-.685 1.855-1.423.288 1.063 1.189 1.423 1.856 1.423 1.837 0 2.809-2.36 2.809-2.756 0-.09-.072-.162-.18-.162-.162 0-.18.09-.234.234-.486 1.585-1.531 2.324-2.341 2.324-.631 0-.973-.469-.973-1.207 0-.396.072-.685.36-1.873l.631-2.45c.27-1.081.882-1.873 1.711-1.873.036 0 .54 0 .918.234M165.204 187.249c.949 0 1.549.697 1.549 1.958 0 1.501-.852 1.945-1.489 1.945-.66 0-1.561-.24-1.981-.877.432 0 .732-.276.732-.672a.637.637 0 0 0-.66-.66c-.324 0-.661.204-.661.684 0 1.141 1.225 1.885 2.594 1.885 1.597 0 2.714-1.104 2.714-2.305 0-.997-.793-1.91-2.017-2.174.948-.336 1.657-1.153 1.657-2.113 0-.961-1.081-1.645-2.33-1.645-1.285 0-2.257.696-2.257 1.609 0 .444.3.636.612.636.372 0 .612-.264.612-.612 0-.445-.384-.613-.648-.625.504-.66 1.429-.696 1.645-.696.312 0 1.225.096 1.225 1.333 0 .84-.348 1.345-.516 1.537-.361.372-.637.396-1.369.444-.228.012-.325.024-.325.18 0 .168.109.168.313.168zM172.16 184.936c0-.324 0-.649-.36-.649-.361 0-.361.325-.361.649v16.715c0 .325 0 .649.361.649.36 0 .36-.324.36-.649zM178.07 183.611c0-.324-.024-.336-.348-.336-.493.48-1.129.768-2.27.768v.396c.324 0 .973 0 1.669-.324v6.16c0 .445-.036.589-1.176.589h-.421v.396c.493-.036 1.525-.036 2.066-.036s1.585 0 2.077.036v-.396h-.42c-1.141 0-1.177-.144-1.177-.589zM180.171 198.419c0-1.285-.132-2.065-.528-2.834-.528-1.057-1.501-1.321-2.161-1.321-1.513 0-2.066 1.129-2.234 1.465-.432.877-.456 2.066-.456 2.69 0 .793.036 2.005.612 2.966.553.889 1.441 1.117 2.078 1.117.576 0 1.609-.18 2.209-1.369.444-.865.48-1.933.48-2.714m-2.689 3.747c-.409 0-1.237-.193-1.489-1.453-.133-.685-.133-1.814-.133-2.438 0-.829 0-1.669.133-2.33.252-1.225 1.188-1.345 1.489-1.345.408 0 1.236.205 1.477 1.297.144.661.144 1.561.144 2.378 0 .708 0 1.789-.144 2.462-.253 1.261-1.081 1.429-1.477 1.429M198.591 191.961c.252 0 .577 0 .577-.325 0-.342-.307-.342-.577-.342h-10.609c-.252 0-.576 0-.576.324 0 .343.306.343.576.343zm0 3.35c.252 0 .577 0 .577-.324 0-.342-.307-.342-.577-.342h-10.609c-.252 0-.576 0-.576.324 0 .342.306.342.576.342zM210.342 186.251c0-.415 0-.433-.361-.433-.432.487-1.333 1.153-3.188 1.153v.523c.414 0 1.315 0 2.306-.469v9.385c0 .648-.054.864-1.639.864h-.559v.523c.487-.036 2.234-.036 2.828-.036.595 0 2.324 0 2.81.036v-.523h-.558c-1.585 0-1.639-.216-1.639-.864z"/></g><defs><clipPath id="a"><path fill="#fff" d="M0 0h249.868v204.303H0z"/></clipPath></defs></svg>